<svg width="1355" height="756" viewBox="0 0 1355 756" fill="none" xmlns="http://www.w3.org/2000/svg">
<g filter="url(#filter0_f_2_18)">
<path d="M677.38 -538.343L689.714 -156.693L741.874 -534.963L714.247 -154.114L805.661 -524.86L738.377 -148.985L868.043 -508.144L761.838 -141.362L928.337 -485L784.373 -131.329L985.88 -455.68L805.737 -118.995L1040.04 -420.506L825.694 -104.495L1090.23 -379.863L844.026 -87.9885L1135.9 -334.196L860.532 -69.6564L1176.54 -284.006L875.032 -49.6993L1211.72 -229.843L887.366 -28.3358L1241.04 -172.299L897.4 -5.80017L1264.18 -112.006L905.023 17.6608L1280.9 -49.624L910.151 41.7901L1291 14.1634L912.73 66.3233L1294.38 78.6575L912.73 90.9916L1291 143.152L910.151 115.525L1280.9 206.939L905.023 139.654L1264.18 269.321L897.4 163.115L1241.04 329.614L887.366 185.651L1211.72 387.157L875.032 207.014L1176.54 441.321L860.532 226.971L1135.9 491.511L844.026 245.303L1090.23 537.178L825.694 261.81L1040.04 577.821L805.737 276.31L985.88 612.995L784.373 288.644L928.337 642.315L761.838 298.677L868.043 665.459L738.377 306.3L805.661 682.175L714.247 311.429L741.874 692.277L689.714 314.008L677.38 695.657L665.046 314.008L612.886 692.277L640.513 311.429L549.099 682.175L616.383 306.3L486.717 665.459L592.922 298.677L426.423 642.315L570.387 288.644L368.88 612.995L549.023 276.31L314.716 577.821L529.066 261.81L264.526 537.178L510.734 245.303L218.86 491.511L494.228 226.971L178.217 441.321L479.728 207.014L143.042 387.157L467.394 185.651L113.722 329.614L457.36 163.115L90.5781 269.321L449.737 139.654L73.8629 206.939L444.608 115.525L63.76 143.152L442.03 90.9916L60.38 78.6575L442.03 66.3233L63.76 14.1634L444.608 41.7901L73.8629 -49.624L449.737 17.6608L90.5781 -112.006L457.36 -5.80017L113.722 -172.299L467.394 -28.3358L143.042 -229.843L479.728 -49.6993L178.217 -284.006L494.228 -69.6564L218.86 -334.196L510.734 -87.9885L264.526 -379.863L529.066 -104.495L314.716 -420.506L549.023 -118.995L368.88 -455.68L570.387 -131.329L426.423 -485L592.922 -141.362L486.717 -508.144L616.383 -148.985L549.099 -524.86L640.513 -154.114L612.886 -534.963L665.046 -156.693L677.38 -538.343Z" fill="#FF9500"/>
</g>
<defs>
<filter id="filter0_f_2_18" x="0.380005" y="-598.343" width="1354" height="1354" filterUnits="userSpaceOnUse" color-interpolation-filters="sRGB">
<feFlood flood-opacity="0" result="BackgroundImageFix"/>
<feBlend mode="normal" in="SourceGraphic" in2="BackgroundImageFix" result="shape"/>
<feGaussianBlur stdDeviation="30" result="effect1_foregroundBlur_2_18"/>
</filter>
</defs>
</svg>
